<svg width="780" height="1040" viewBox="0 0 780 1040" fill="none" xmlns="http://www.w3.org/2000/svg">
<path d="M658.28 601.63V502.6L777.28 589.1V601.63H658.28Z" fill="black"/>
<path d="M590.1 998.39V891.25L718.85 984.83V998.39H590.1Z" fill="black"/>
<path d="M293.13 773.05H400.27L306.68 901.8H293.13V773.05Z" fill="black"/>
<path d="M777.53 0H649.58L761.34 153.75H777.53V0Z" fill="black"/>
<path d="M636.1 112.39H722.72L647.06 8.31H636.1V112.39Z" fill="black"/>
<path d="M346.7 764.27H400.27L353.47 699.9H346.7V764.27Z" fill="black"/>
<path d="M720.18 870.42V977.56L591.43 883.97V870.42H720.18Z" fill="black"/>
<path d="M777.53 488.84V580.05L667.92 500.37V488.84H777.53Z" fill="black"/>
<path d="M343.79 243.17V131.92L210.1 229.1V243.17H343.79Z" fill="black"/>
<path d="M189.36 306.02V240.86L111.05 297.78V306.02H189.36Z" fill="black"/>
<path d="M357.62 243.17V131.92L491.31 229.1V243.17H357.62Z" fill="black"/>
<path d="M525.17 1039.1H219.17L486.46 671.38H525.17V1039.1Z" fill="black"/>
<path d="M111.05 0V285.45L454.07 36.11V0H111.05Z" fill="black"/>
<path d="M199.48 910.97V744.98L0.00994873 889.97V910.97H199.48Z" fill="black"/>
<path d="M0.00994873 732.17V874.94L171.57 750.23V732.17H0.00994873Z" fill="black"/>
<path d="M413.68 315.39C359.68 317.3 316.46 361.56 316.46 416.02H413.68H518.08H636.1V315.21H413.67V315.39H413.68Z" fill="black"/>
<path d="M301.22 730.42C283.42 731.05 269.17 745.64 269.17 763.6H301.22H335.64H340.06V730.36H301.22V730.42Z" fill="black"/>
<path d="M103.43 720.72C45.9799 718.69 0 671.61 0 613.66H103.43H214.5H340.06V720.91H103.43V720.72Z" fill="black"/>
<path d="M100.64 506.23C98.73 452.23 54.4699 409.01 0.00994873 409.01V506.23V568.83V603.58H100.82V506.22H100.64V506.23Z" fill="black"/>
<path d="M214.33 421.97C271.61 419.95 317.46 372.99 317.46 315.22H214.33H147.92H111.06V422.17H214.34V421.97H214.33Z" fill="black"/>
<path d="M550.21 77.34C551.73 120.23 586.88 154.56 630.15 154.56V77.34V27.61V0.0100098H550.07V77.34H550.21Z" fill="black"/>
<path d="M537.81 601.43C478.72 599.34 431.43 550.91 431.43 491.31H537.81H606.32H645.41V601.62H537.81V601.43Z" fill="black"/>
<path d="M721.27 736.11C718.78 806.49 661.1 862.82 590.11 862.82V736.11V654.51V617.35H721.51V736.11H721.27Z" fill="black"/>
<path d="M223.48 502.95C277.48 504.86 320.7 549.12 320.7 603.58H223.48H160.88H111.06V502.77H223.49V502.95H223.48Z" fill="black"/>
<path d="M359.68 497.6V692.72C408.34 686.05 445.94 645.15 445.94 595.16C445.94 545.17 408.35 504.27 359.68 497.6Z" fill="black"/>
<path d="M205.72 731.42V910.96C250.5 904.82 285.1 867.19 285.1 821.19C285.1 775.2 250.5 737.57 205.72 731.42Z" fill="black"/>
<path d="M260.37 923.99H0.00994873C8.91995 988.93 63.4899 1039.1 130.19 1039.1C196.89 1039.1 251.46 988.93 260.37 923.99Z" fill="black"/>
<path d="M100.82 433.62V205.6C43.9499 213.4 0.00994873 261.19 0.00994873 319.61C0.00994873 378.03 43.9499 425.82 100.82 433.62Z" fill="black"/>
<path d="M302.59 489.58V398.96C279.99 402.06 262.53 421.05 262.53 444.27C262.53 467.49 279.99 486.48 302.59 489.58Z" fill="black"/>
<path d="M0.00994873 0V228.02C56.8799 220.22 100.82 172.43 100.82 114.01C100.82 55.6 56.8799 7.8 0.00994873 0Z" fill="black"/>
<path d="M112.27 494.01H266.44C261.17 455.56 228.85 425.85 189.36 425.85C149.86 425.85 117.55 455.56 112.27 494.01Z" fill="black"/>
<path d="M584.13 1038.6H648.21C646.02 1022.62 632.59 1010.27 616.17 1010.27C599.75 1010.26 586.32 1022.61 584.13 1038.6Z" fill="black"/>
<path d="M534.28 0H465.88C468.22 17.06 482.55 30.24 500.08 30.24C517.61 30.24 531.94 17.06 534.28 0Z" fill="black"/>
<path d="M777.28 459.93V353.32C750.69 356.97 730.14 379.31 730.14 406.63C730.15 433.94 750.69 456.29 777.28 459.93Z" fill="black"/>
<path d="M649.58 122.18V416.02C722.87 405.97 779.49 344.38 779.49 269.1C779.49 193.83 722.87 132.23 649.58 122.18Z" fill="black"/>
<path d="M409.89 759.83L476.28 669.81C451.56 656.33 420.3 662.4 403.29 685.47C386.28 708.53 389.71 740.19 409.89 759.83Z" fill="black"/>
<path d="M365.34 118.34L535.45 243.8C560.92 197.08 549.45 138 505.86 105.86C462.28 73.73 402.45 80.21 365.34 118.34Z" fill="black"/>
<path d="M311.05 434.27V553.76H345.74V476.67H611.03V476.63H691.44V476.55C714.13 475.75 732.29 457.15 732.29 434.27H691.44H647.57H611.03H311.05Z" fill="black"/>
<path d="M579.31 617.35H459.82V652.04H536.91V917.33H536.95V997.74H537.03C537.83 1020.43 556.43 1038.59 579.31 1038.59V997.74V953.87V917.33V617.35Z" fill="black"/>
<path d="M777.53 1038.6H658.04V1003.91H735.13V738.61H735.17V658.2H735.25C736.05 635.51 754.65 617.35 777.53 617.35V658.2V702.07V738.61V1038.6Z" fill="black"/>
<path d="M634.48 302.55V179.16H598.66V258.77H324.7V258.81H241.66V258.89C218.23 259.72 199.48 278.92 199.48 302.55H241.66H286.96H324.7H634.48Z" fill="black"/>
</svg>
