<?xml version="1.0" encoding="utf-8"?>
<!-- Generator: Adobe Illustrator 26.5.0, SVG Export Plug-In . SVG Version: 6.00 Build 0)  -->
<svg version="1.1" id="Camada_1" xmlns="http://www.w3.org/2000/svg" xmlns:xlink="http://www.w3.org/1999/xlink" x="0px" y="0px"
	 viewBox="0 0 1920 1080" style="enable-background:new 0 0 1920 1080;" xml:space="preserve">
<g>
	<polygon points="1626.43,622.08 1626.43,523.05 1745.43,609.55 1745.43,622.08 	"/>
	<polygon points="1558.25,1018.84 1558.25,911.7 1687,1005.28 1687,1018.84 	"/>
	<polygon points="1261.28,793.5 1368.42,793.5 1274.83,922.25 1261.28,922.25 	"/>
	<polygon points="1745.68,20.45 1617.73,20.45 1729.49,174.2 1745.68,174.2 	"/>
	<polygon points="1604.25,132.84 1690.87,132.84 1615.21,28.76 1604.25,28.76 	"/>
	<polygon points="1314.85,784.72 1368.42,784.72 1321.62,720.35 1314.85,720.35 	"/>
	<polygon points="1688.33,890.87 1688.33,998.01 1559.58,904.42 1559.58,890.87 	"/>
	<polygon points="1745.68,509.29 1745.68,600.5 1636.07,520.82 1636.07,509.29 	"/>
	<polygon points="1311.94,263.62 1311.94,152.37 1178.25,249.55 1178.25,263.62 	"/>
	<polygon points="1157.51,326.47 1157.51,261.31 1079.2,318.23 1079.2,326.47 	"/>
	<polygon points="1325.77,263.62 1325.77,152.37 1459.46,249.55 1459.46,263.62 	"/>
	<polygon points="1493.32,1059.55 1187.32,1059.55 1454.61,691.83 1493.32,691.83 	"/>
	<polygon points="1079.2,20.45 1079.2,305.9 1422.22,56.56 1422.22,20.45 	"/>
	<polygon points="1167.63,931.42 1167.63,765.43 968.16,910.42 968.16,931.42 	"/>
	<polygon points="968.16,752.62 968.16,895.39 1139.72,770.68 1139.72,752.62 	"/>
	<path d="M1381.83,335.84c-54,1.91-97.22,46.17-97.22,100.63h97.22h104.4h118.02V335.66h-222.43V335.84z"/>
	<path d="M1269.37,750.87c-17.8,0.63-32.05,15.22-32.05,33.18h32.05h34.42h4.42v-33.24h-38.84V750.87z"/>
	<path d="M1071.58,741.17c-57.45-2.03-103.43-49.11-103.43-107.06h103.43h111.07h125.56v107.25h-236.63V741.17z"/>
	<path d="M1068.79,526.68c-1.91-54-46.17-97.22-100.63-97.22v97.22v62.6v34.75h100.81v-97.36H1068.79z"/>
	<path d="M1182.48,442.42c57.28-2.02,103.13-48.98,103.13-106.75h-103.13h-66.41h-36.86v106.95h103.28V442.42z"/>
	<path d="M1518.36,97.79c1.52,42.89,36.67,77.22,79.94,77.22V97.79V48.06v-27.6h-80.08v77.33H1518.36z"/>
	<path d="M1505.96,621.88c-59.09-2.09-106.38-50.52-106.38-110.12h106.38h68.51h39.09v110.31h-107.6V621.88z"/>
	<path d="M1689.42,756.56c-2.49,70.38-60.17,126.71-131.16,126.71V756.56v-81.6V637.8h131.4v118.76H1689.42z"/>
	<path d="M1191.63,523.4c54,1.91,97.22,46.17,97.22,100.63h-97.22h-62.6h-49.82V523.22h112.43V523.4z"/>
	<path d="M1327.83,518.05l0,195.12c48.66-6.67,86.26-47.57,86.26-97.56C1414.09,565.62,1376.5,524.72,1327.83,518.05z"/>
	<path d="M1173.87,751.87l0,179.54c44.78-6.14,79.38-43.77,79.38-89.77C1253.25,795.65,1218.65,758.02,1173.87,751.87z"/>
	<path d="M1228.52,944.44l-260.36,0c8.91,64.94,63.48,115.11,130.18,115.11C1165.04,1059.55,1219.61,1009.38,1228.52,944.44z"/>
	<path d="M1068.97,454.07V226.05c-56.87,7.8-100.81,55.59-100.81,114.01C968.16,398.48,1012.1,446.27,1068.97,454.07z"/>
	<path d="M1270.74,510.03v-90.62c-22.6,3.1-40.06,22.09-40.06,45.31C1230.68,487.94,1248.14,506.93,1270.74,510.03z"/>
	<path d="M968.16,20.45l0,228.02c56.87-7.8,100.81-55.59,100.81-114.01C1068.97,76.05,1025.03,28.25,968.16,20.45z"/>
	<path d="M1080.42,514.46l154.17,0c-5.27-38.45-37.59-68.16-77.08-68.16C1118.01,446.3,1085.7,476.01,1080.42,514.46z"/>
	<path d="M1552.28,1059.05h64.08c-2.19-15.98-15.62-28.33-32.04-28.33C1567.9,1030.71,1554.47,1043.06,1552.28,1059.05z"/>
	<path d="M1502.43,20.45l-68.4,0c2.34,17.06,16.67,30.24,34.2,30.24C1485.76,50.69,1500.09,37.51,1502.43,20.45z"/>
	<path d="M1745.43,480.38V373.77c-26.59,3.65-47.14,25.99-47.14,53.31C1698.3,454.39,1718.84,476.74,1745.43,480.38z"/>
	<path d="M1617.73,142.63l0,293.84c73.29-10.05,129.91-71.64,129.91-146.92C1747.64,214.28,1691.02,152.68,1617.73,142.63z"/>
	<path d="M1378.04,780.28l66.39-90.02c-24.72-13.48-55.98-7.41-72.99,15.66C1354.43,728.98,1357.86,760.64,1378.04,780.28z"/>
	<path d="M1333.49,138.79l170.11,125.46c25.47-46.72,14-105.8-29.59-137.94C1430.43,94.18,1370.6,100.66,1333.49,138.79z"/>
	<path d="M1279.2,454.72v119.49h34.69v-77.09h265.29v-0.04h80.41V497c22.69-0.8,40.85-19.4,40.85-42.28h-40.85h-43.87h-36.54v0
		H1279.2z"/>
	<path d="M1547.46,637.8h-119.49v34.69h77.09v265.29h0.04v80.41h0.08c0.8,22.69,19.4,40.85,42.28,40.85v-40.85v-43.87v-36.54h0
		V637.8z"/>
	<path d="M1745.68,1059.05h-119.49v-34.69h77.09V759.06h0.04v-80.41h0.08c0.8-22.69,19.4-40.85,42.28-40.85v40.85v43.87v36.54h0
		V1059.05z"/>
	<path d="M1602.63,323V199.61h-35.82v79.61h-273.96v0.04h-83.04v0.08c-23.43,0.83-42.18,20.03-42.18,43.66h42.18h45.3h37.74v0
		H1602.63z"/>
</g>
</svg>
