<svg width="71" height="130" viewBox="0 0 71 130" fill="none" xmlns="http://www.w3.org/2000/svg">
<path d="M34.9071 56.7092V45.2382H49.6845V38.5733H26.7784V56.7092H34.9071Z" fill="white"/>
<path d="M26.7784 123.057V129.527C31.1658 129.527 34.7293 126.037 34.8846 121.678H34.8989V118.06C33.3922 121.034 30.3357 123.055 26.7784 123.057Z" fill="white"/>
<path d="M46.9715 109.703V89.8862C42.0423 90.5646 38.2314 94.7169 38.2314 99.7934C38.2314 104.872 42.0402 109.024 46.9715 109.703Z" fill="white"/>
<path d="M22.9061 50.0565H0V56.7235H14.7774V86.9452H14.7855V107.973H14.7998C14.9532 112.332 18.5187 115.822 22.9061 115.822V107.973V99.5434V86.9452V50.0565Z" fill="white"/>
<path d="M26.7784 50.2308H68.1439V56.8977H34.9071V116.974H34.8989V114.185H34.8846C34.7313 118.544 31.1658 122.034 26.7784 122.034V114.185V123.996V116.974V50.2308Z" fill="white"/>
<path d="M51.6063 118.005C51.6063 118.005 48.0325 113.142 53.0762 108.828C57.4371 105.097 60.2277 101.769 59.7187 97.8034C58.9684 91.9849 55.1309 90.0666 48.8953 87.6011C46.4624 86.6378 44.1624 85.7258 42.2447 84.3444C38.215 81.4301 34.7824 75.3554 36.3607 69.8279C37.154 67.0386 39.9119 62.2633 49.4371 61.6198C50.9091 61.5234 57.1508 61.5993 58.3877 61.6116L58.2916 68.9815C55.3333 68.9385 50.7844 68.918 49.9278 68.9733C48.19 69.0901 44.0663 69.6045 43.4243 71.8549C42.8989 73.7015 44.3811 76.8064 46.5421 78.3661C47.7136 79.2166 49.6006 79.9606 51.594 80.7517C57.5229 83.0983 65.6476 86.3119 67.0072 96.8627C68.101 105.356 62.491 113.066 51.6063 118.005Z" fill="white"/>
<path fill-rule="evenodd" clip-rule="evenodd" d="M43.7739 16.0126C46.6505 16.3897 49.3533 17.4677 54.5544 20.1608C58.584 22.2348 63.6686 21.9643 71 21.4868C65.7682 22.7308 64.3208 24.4626 61.9615 28.0185C60.7 29.9183 59.2423 29.7011 58.4654 29.3014C55.6911 27.8709 52.6285 25.35 49.3471 22.3455C46.2212 19.4865 43.2526 17.7137 40.464 16.8508C39.7832 16.6397 39.1146 16.484 38.4563 16.3774C37.8614 16.2811 41.0753 15.658 43.7739 16.0126Z" fill="white"/>
<path fill-rule="evenodd" clip-rule="evenodd" d="M42.4266 18.9372C46.6566 21.827 50.4164 28.4714 53.4279 30.8386C51.641 31.2444 49.9482 31.8367 47.2924 25.6554C45.8859 22.3865 44.1481 20.5994 42.4266 18.9372Z" fill="white"/>
<path fill-rule="evenodd" clip-rule="evenodd" d="M57.9298 29.6334C57.9053 29.6211 57.8807 29.6068 57.8541 29.5925C56.5702 29.0883 55.0205 27.9303 53.3379 26.5121C52.0356 25.4771 50.5963 24.2351 48.971 22.7472C46.72 20.6875 44.4977 19.1503 42.3224 18.144C47.1821 21.5933 53.2275 31.3673 57.7356 32.9536C58.1179 33.0889 58.6801 32.7077 58.3653 31.7956C58.124 31.0927 57.9952 30.3856 57.9298 29.6334Z" fill="white"/>
<path d="M41.7745 12.8543L41.7969 12.8646H28.4037L28.4855 26.219C28.4936 26.2375 28.5018 26.2559 28.5079 26.2744C29.7121 23.0382 31.405 19.5664 32.6705 17.1562C35.0748 15.8753 38.5585 14.1435 41.8031 12.8625C41.7928 12.8605 41.7826 12.8584 41.7745 12.8543Z" fill="white"/>
<path d="M28.4037 12.8646L15.2292 12.9691L15.3662 13.0306H15.3907C18.4553 14.1906 21.8532 15.8446 24.2023 17.0743L28.4037 12.8646Z" fill="white"/>
<path d="M32.2289 8.28196C31.0165 5.94145 29.5322 2.87952 28.4037 0V12.8646L32.3311 8.5033L32.2289 8.28196Z" fill="white"/>
<path d="M24.2003 17.0763C24.0163 16.98 23.8221 16.8795 23.6258 16.7771C23.82 16.8775 24.0184 16.98 24.2003 17.0763Z" fill="white"/>
<path d="M38.4256 22.6939C36.4568 21.8352 33.981 21.1261 33.6886 21.0789C33.6334 21.0687 33.5823 21.0625 33.5332 21.0584L34.674 18.7589L36.7696 17.8141C36.7717 17.8633 36.7757 17.9145 36.788 17.9698C36.833 18.265 37.5404 20.7489 38.4256 22.6939Z" fill="white"/>
<path d="M28.4854 26.219C28.4936 26.2375 28.5018 26.2559 28.5079 26.2744C29.7121 23.0382 31.4049 19.5664 32.6704 17.1562L28.4057 12.8625L28.4854 26.219Z" fill="white"/>
<path d="M28.3751 12.8318L24.5151 8.59552C22.1067 9.8826 18.5412 11.6636 15.2292 12.9691L28.4037 12.8646L28.3751 12.8318Z" fill="white"/>
</svg>
